<?xml version="1.0" standalone="no"?>
<!DOCTYPE svg PUBLIC "-//W3C//DTD SVG 20010904//EN"
 "http://www.w3.org/TR/2001/REC-SVG-20010904/DTD/svg10.dtd">
<svg version="1.0" xmlns="http://www.w3.org/2000/svg"
 width="512.000000pt" height="512.000000pt" viewBox="0 0 512.000000 512.000000"
 preserveAspectRatio="xMidYMid meet">

<g transform="translate(0.000000,512.000000) scale(0.100000,-0.100000)"
fill="#ff6347" stroke="none">
<path d="M2983 4957 c-28 -31 -70 -110 -99 -187 -14 -36 -29 -74 -34 -85 -4
-11 -13 -34 -20 -52 -7 -18 -19 -38 -27 -45 -8 -7 -29 -35 -47 -63 -52 -82
-51 -78 -27 -70 27 8 28 -15 2 -39 -13 -12 -21 -14 -26 -6 -5 8 -15 4 -31 -11
-13 -12 -24 -26 -24 -31 0 -4 -18 -24 -40 -44 -22 -20 -40 -43 -40 -50 0 -8
-12 -24 -26 -37 -14 -12 -30 -30 -35 -40 -9 -15 -7 -17 17 -11 28 7 51 27 70
60 14 24 44 31 44 10 0 -8 -6 -19 -13 -23 -8 -4 -22 -23 -32 -40 -11 -18 -25
-33 -33 -33 -7 0 -38 -16 -68 -35 -59 -38 -80 -46 -44 -17 22 18 23 21 11 68
-7 27 -23 72 -37 101 -13 28 -24 59 -24 67 0 8 -4 17 -10 21 -5 3 -14 20 -19
38 -10 33 -81 232 -99 278 -6 14 -18 34 -27 43 -17 16 -19 16 -41 -5 -19 -18
-36 -23 -82 -23 -31 0 -65 4 -74 8 -15 7 -18 3 -18 -17 0 -13 7 -44 16 -68 35
-100 56 -335 35 -409 -7 -25 -7 -25 -13 -2 -5 17 -13 22 -37 22 -17 0 -41 -6
-54 -12 -12 -7 -24 -14 -26 -15 -1 -1 4 -15 12 -32 9 -18 11 -33 6 -37 -20
-12 -249 31 -249 47 0 13 69 59 89 59 12 0 21 7 21 15 0 33 -144 10 -155 -25
-8 -26 -39 -32 -100 -20 -27 5 -84 16 -125 24 -159 32 -218 39 -326 39 -123
-1 -151 -7 -271 -65 -97 -46 -170 -108 -218 -187 -27 -43 -44 -60 -73 -70 -63
-23 -84 -51 -37 -51 14 0 25 -2 25 -4 0 -2 -25 -46 -55 -97 -53 -91 -66 -129
-45 -129 6 0 15 12 20 26 11 28 58 98 87 129 10 11 39 47 65 81 26 33 61 68
78 76 25 12 28 17 15 22 -12 4 3 22 62 74 156 136 202 157 333 157 113 -1 260
-23 260 -40 0 -15 -22 -25 -53 -25 -47 0 3 -18 82 -29 54 -8 106 -23 143 -42
31 -16 64 -29 71 -29 17 0 107 -46 126 -65 14 -14 6 -16 -78 -15 -12 0 -27 -3
-32 -6 -13 -7 48 -64 70 -64 57 0 19 -33 -105 -89 -49 -23 -102 -49 -117 -57
-16 -9 -52 -20 -80 -24 -87 -14 -111 -20 -145 -41 -18 -10 -37 -19 -41 -19
-14 0 -131 -73 -131 -82 0 -4 -7 -8 -15 -8 -8 0 -21 -10 -30 -23 -16 -26 -27
-109 -12 -100 15 9 -3 -39 -30 -79 -14 -21 -29 -38 -34 -38 -5 0 -57 -36 -116
-79 -59 -44 -138 -101 -175 -126 -63 -44 -106 -87 -253 -250 -33 -37 -82 -90
-109 -119 -54 -57 -85 -116 -86 -161 0 -17 -4 -35 -10 -41 -17 -17 -40 -211
-40 -336 0 -120 10 -227 30 -338 5 -30 15 -89 22 -131 7 -42 19 -83 26 -92 7
-8 15 -32 18 -54 5 -37 17 -73 35 -103 9 -16 39 -79 66 -140 9 -19 21 -42 28
-50 7 -8 15 -27 19 -43 4 -15 15 -36 25 -46 10 -10 21 -30 25 -45 3 -14 11
-26 16 -26 6 0 10 -8 10 -19 0 -10 12 -31 26 -46 14 -15 41 -59 61 -99 20 -39
40 -72 45 -74 4 -2 8 -10 8 -19 0 -50 220 -265 412 -402 27 -19 48 -38 48 -43
0 -4 10 -8 22 -8 11 0 36 -11 54 -25 18 -14 43 -30 56 -35 13 -6 50 -26 83
-45 33 -18 76 -41 95 -50 19 -10 41 -22 49 -28 7 -6 25 -13 39 -15 14 -2 51
-14 83 -27 57 -24 82 -32 209 -62 68 -15 579 -41 844 -42 151 0 419 22 457 38
13 6 57 15 96 21 40 5 92 16 115 24 24 8 62 17 84 20 110 16 426 148 538 225
24 17 47 31 51 31 14 0 199 136 276 202 15 13 34 38 43 56 9 17 20 32 25 32 4
0 13 10 18 23 6 13 33 47 59 76 45 49 67 82 93 138 6 12 19 31 30 42 12 12 18
27 14 41 -4 14 2 28 16 41 11 11 21 31 21 45 0 13 6 27 14 30 8 3 21 22 29 43
9 20 22 43 31 50 19 16 22 46 4 35 -7 -4 -2 4 12 17 13 13 31 24 40 24 8 1 14
7 12 13 -3 15 42 62 58 62 6 0 9 4 5 9 -3 5 -1 12 5 16 5 3 10 15 10 27 0 11
13 36 30 54 16 19 37 59 45 89 9 30 21 57 26 60 5 4 9 16 9 29 0 13 9 31 19
40 10 10 21 34 24 54 8 64 28 156 38 175 5 10 14 52 19 93 5 41 13 81 17 87 9
14 17 77 34 257 39 424 -92 810 -431 1271 -106 145 -195 230 -315 304 -19 12
-42 28 -52 36 -49 43 -261 119 -330 119 -49 0 -62 -15 -60 -73 1 -21 -4 -41
-9 -45 -6 -4 -10 -27 -9 -51 1 -46 -27 -96 -49 -88 -6 2 -23 -2 -37 -9 -21
-11 -118 -27 -234 -38 -16 -2 -43 -9 -58 -15 -16 -6 -43 -11 -60 -11 -18 0
-48 -9 -67 -20 -19 -11 -47 -25 -62 -31 -16 -6 -28 -15 -28 -20 0 -5 -6 -9
-13 -9 -21 0 -77 -69 -77 -96 0 -29 -40 -70 -87 -90 -17 -8 -38 -23 -47 -35
-19 -28 -91 -42 -186 -34 -67 5 -79 3 -110 -17 -19 -12 -51 -23 -70 -23 -40
-1 -80 -13 -80 -24 0 -4 -14 -8 -32 -9 -18 -2 -40 -10 -50 -19 -19 -17 -84
-26 -178 -25 -105 1 -243 13 -261 22 -10 6 -28 10 -42 10 -29 0 -157 61 -176
84 -7 9 -19 16 -26 16 -6 0 -20 8 -29 19 -16 17 -16 20 -1 35 9 9 12 16 5 16
-6 0 -8 5 -5 10 3 6 -2 10 -13 10 -10 0 -22 3 -25 7 -11 10 13 33 34 33 21 0
26 16 7 23 -10 4 -10 8 1 16 9 5 22 6 31 1 13 -7 16 -3 16 23 -1 26 3 31 19
29 17 -3 17 -2 5 13 -13 15 -11 20 15 41 58 46 215 88 206 54 -15 -59 -11 -65
59 -75 3 0 10 -3 16 -7 6 -4 28 -2 50 3 103 28 120 33 135 46 57 47 158 36
237 -28 28 -21 54 -39 60 -39 5 0 13 -12 16 -26 9 -36 54 -74 87 -74 46 0 142
41 176 75 27 27 31 37 27 66 -3 19 -14 43 -25 55 -19 21 -27 88 -11 98 11 7
67 7 116 1 34 -4 44 0 73 28 18 18 47 43 63 57 63 51 90 81 96 105 11 42 -1
55 -50 55 -25 0 -68 5 -95 11 -46 10 -53 9 -87 -15 -21 -14 -39 -24 -41 -22
-2 2 19 33 46 70 27 36 54 81 60 101 5 19 18 47 28 62 33 47 35 62 9 78 -32
21 -49 12 -130 -69 -68 -69 -69 -71 -42 -74 l27 -3 -28 -37 c-67 -88 -83 -99
-83 -58 0 14 -4 28 -10 31 -18 11 -11 98 10 135 46 79 73 145 87 213 13 69 47
184 64 218 4 9 10 36 14 61 9 58 -11 79 -42 45z m-303 -633 c0 -17 -22 -14
-28 4 -2 7 3 12 12 12 9 0 16 -7 16 -16z m-603 -209 c3 -9 3 -19 -1 -22 -7 -7
-36 16 -36 28 0 15 30 10 37 -6z m209 -112 c-10 -10 -19 5 -10 18 6 11 8 11
12 0 2 -7 1 -15 -2 -18z m1443 -1077 c12 -8 37 -14 86 -22 17 -3 53 -11 80
-19 45 -12 123 -26 167 -31 10 0 24 -7 32 -13 8 -7 19 -10 24 -7 9 6 82 -77
82 -93 0 -6 3 -11 8 -11 7 0 9 -24 13 -171 2 -71 0 -81 -34 -143 -21 -37 -37
-74 -37 -83 0 -10 -6 -14 -19 -10 -14 3 -18 1 -14 -10 4 -9 0 -14 -8 -13 -30
5 -37 -1 -32 -22 5 -23 5 -23 -11 -3 -11 14 -15 15 -14 5 2 -11 -6 -15 -32
-15 -19 0 -35 -5 -36 -10 0 -6 -4 -18 -9 -28 -6 -14 -10 -15 -15 -6 -5 7 -18
9 -33 6 -19 -5 -23 -12 -20 -31 5 -26 -14 -46 -23 -23 -6 17 -44 11 -44 -7 0
-22 -85 -53 -96 -35 -7 11 -44 12 -44 1 0 -5 -13 -7 -30 -4 -18 3 -30 0 -30
-7 0 -6 -16 -11 -35 -11 -19 0 -35 4 -35 9 0 8 -40 7 -99 -5 -19 -4 -36 -2
-40 4 -3 6 -13 12 -21 14 -8 2 -21 11 -28 21 -7 9 -18 15 -23 12 -5 -4 -9 -2
-9 4 0 6 -17 13 -37 17 -21 3 -43 12 -48 19 -6 7 -28 20 -50 29 -29 13 -36 19
-27 28 22 22 13 36 -19 34 -22 -2 -36 4 -51 23 -11 14 -29 28 -41 31 -24 6
-59 63 -51 83 2 7 -6 26 -18 42 -22 28 -25 43 -31 155 -3 43 9 70 31 70 6 0
12 7 15 15 11 26 82 116 85 106 2 -5 12 -7 22 -4 14 4 20 14 20 34 0 35 16 47
25 18 4 -12 10 -17 14 -12 3 6 15 10 26 10 56 -1 84 5 104 22 14 12 44 22 79
26 31 3 68 10 82 14 28 10 231 8 249 -3z"/>
<path d="M3040 4913 c0 -10 5 -25 10 -33 7 -11 10 -7 10 18 0 17 -4 32 -10 32
-5 0 -10 -8 -10 -17z"/>
<path d="M3051 4794 c0 -11 3 -14 6 -6 3 7 2 16 -1 19 -3 4 -6 -2 -5 -13z"/>
<path d="M3051 4708 c-1 -39 3 -50 25 -67 15 -12 41 -21 58 -21 30 0 30 1 -19
28 -44 24 -51 32 -56 67 l-6 40 -2 -47z"/>
<path d="M1030 4080 c-13 -8 -12 -10 3 -10 9 0 17 5 17 10 0 12 -1 12 -20 0z"/>
</g>
</svg>
