<?xml version="1.0" standalone="no"?>
<!DOCTYPE svg PUBLIC "-//W3C//DTD SVG 20010904//EN"
 "http://www.w3.org/TR/2001/REC-SVG-20010904/DTD/svg10.dtd">
<svg version="1.0" xmlns="http://www.w3.org/2000/svg"
 width="640.000000pt" height="426.000000pt" viewBox="0 0 640.000000 426.000000"
 preserveAspectRatio="xMidYMid meet">

<g transform="translate(0.000000,426.000000) scale(0.100000,-0.100000)"
fill="#32de84" stroke="none">
<path d="M855 3355 c-21 -9 -24 -14 -12 -14 27 -1 17 -35 -11 -39 -25 -4 -32
-42 -7 -42 8 0 15 -8 15 -19 0 -15 -24 -27 -127 -61 -71 -23 -137 -48 -149
-55 -18 -12 -22 -10 -39 16 -11 15 -38 35 -61 44 -39 15 -45 15 -81 -1 -27
-12 -33 -18 -20 -21 19 -5 21 -12 8 -32 -5 -8 -16 -11 -25 -8 -23 9 -21 -27 4
-78 21 -44 99 -114 163 -146 20 -11 37 -25 37 -32 0 -16 107 -63 133 -59 23 4
79 -36 71 -51 -4 -7 -3 -9 1 -4 5 4 16 0 25 -8 9 -8 66 -35 126 -60 60 -25
119 -56 133 -69 l24 -24 -36 3 c-20 2 -56 16 -82 30 -25 15 -47 26 -49 24 -5
-5 39 -253 53 -307 14 -51 7 -66 -27 -59 -25 5 -26 4 -7 -9 11 -8 26 -12 33
-9 18 7 10 -16 -11 -29 -12 -8 -22 -5 -39 11 -13 12 -40 29 -60 38 -35 14 -40
14 -92 -9 -29 -13 -59 -32 -64 -42 -12 -22 -11 -23 -46 37 -14 25 -43 63 -63
84 -34 35 -39 37 -83 32 -45 -6 -46 -5 -74 39 -33 52 -71 84 -100 84 -33 0
-86 -37 -86 -60 0 -12 4 -19 9 -16 5 4 7 -3 4 -14 -6 -23 21 -60 46 -61 10 0
12 -2 3 -6 -6 -2 -9 -10 -5 -16 5 -9 3 -9 -8 0 -11 9 -18 8 -33 -3 -11 -8 -28
-14 -38 -14 -10 0 -18 -5 -18 -10 0 -13 -141 -81 -153 -73 -11 7 -36 -27 -37
-49 0 -28 22 -22 146 41 98 50 116 56 121 42 3 -9 18 -29 32 -46 14 -16 22
-27 17 -23 -5 4 -15 0 -21 -9 -11 -15 -15 -16 -31 -3 -10 9 -15 10 -10 3 5 -9
2 -11 -8 -7 -9 3 -13 10 -10 15 3 5 -10 1 -29 -10 -19 -11 -38 -17 -41 -14 -3
4 -6 1 -6 -6 0 -7 -4 -10 -10 -6 -11 7 -67 -22 -99 -52 -19 -17 -28 -20 -38
-12 -11 10 -13 -18 -13 -160 0 -98 4 -170 9 -167 5 3 14 -1 21 -8 9 -12 7 -17
-9 -26 -18 -9 -21 -20 -21 -70 l0 -59 73 39 74 40 38 -56 c45 -65 79 -94 110
-94 18 0 35 -19 75 -81 73 -116 144 -189 184 -189 28 0 36 -9 85 -87 30 -47
68 -102 84 -120 16 -19 28 -35 26 -38 -2 -2 -76 -31 -164 -65 -88 -34 -244
-95 -347 -136 -102 -40 -198 -76 -212 -80 -26 -6 -26 -7 -26 -100 l0 -93 38
16 c53 22 122 53 157 70 17 8 38 16 47 18 9 2 50 19 90 38 40 19 84 38 98 42
13 4 70 30 125 56 55 27 104 49 108 49 5 0 23 6 40 14 18 7 51 19 75 26 23 7
42 17 42 22 0 4 6 8 13 8 6 0 34 11 62 24 l50 24 43 -68 c32 -52 47 -68 60
-64 14 5 14 4 3 -4 -12 -9 -7 -21 29 -69 98 -129 171 -174 224 -140 21 14 23
13 45 -29 13 -24 28 -41 34 -37 6 4 7 1 2 -6 -18 -30 206 -310 279 -348 18
-10 43 -13 68 -10 39 5 39 5 62 -47 13 -28 35 -71 50 -94 26 -42 27 -42 86
-42 33 0 60 3 60 8 0 4 -14 22 -31 41 -23 24 -33 30 -39 21 -11 -17 -32 23
-24 44 4 9 0 24 -7 33 -12 14 -10 14 14 -1 26 -18 39 -35 15 -20 -15 9 1 -14
49 -69 18 -20 33 -42 33 -47 0 -7 206 -10 593 -10 l594 0 23 25 c13 14 32 25
43 25 11 0 28 7 38 16 10 9 23 13 29 9 6 -4 -4 -18 -26 -36 -43 -34 -45 -35
-38 -11 5 14 4 15 -5 2 -6 -8 -11 -18 -11 -22 0 -5 383 -8 850 -8 l851 0 -22
30 -22 29 16 242 c10 134 19 245 22 247 2 2 96 -44 209 -102 l205 -107 7 28
c3 15 9 37 12 48 3 11 5 23 4 26 0 3 16 21 36 40 l37 34 -35 -40 c-20 -24 -9
-15 28 20 80 76 92 99 92 177 0 63 0 64 50 113 27 26 47 52 44 56 -2 4 1 11 7
15 8 5 10 2 5 -7 -4 -8 28 23 72 69 l80 82 56 -22 57 -21 42 44 c26 27 31 34
12 19 -19 -16 -14 -8 13 21 23 24 42 47 42 50 0 3 -59 30 -131 59 l-130 53 45
46 c51 52 54 61 28 85 -16 14 -27 15 -72 6 -29 -6 -55 -9 -57 -7 -1 2 70 69
159 150 90 80 191 174 225 209 l62 63 -100 230 c-55 127 -106 235 -112 242
-14 14 -453 153 -483 153 -20 0 -136 -77 -208 -137 -17 -14 -81 -86 -144 -161
-63 -76 -116 -139 -119 -142 -2 -2 12 31 32 75 20 43 34 84 31 91 -17 44 -233
367 -250 374 -12 5 -94 21 -184 36 l-164 26 -100 -67 c-55 -37 -104 -63 -108
-58 -3 4 -28 58 -54 120 l-48 112 -53 20 c-29 11 -94 34 -144 52 l-92 32 -93
-49 -93 -48 -57 -107 c-33 -62 -56 -119 -56 -137 0 -40 40 -144 54 -139 12 4
46 -23 46 -37 0 -13 -55 -61 -84 -74 -83 -37 -94 -40 -105 -29 -8 8 -11 5 -11
-11 0 -35 -16 -26 -44 24 l-25 45 34 21 c57 33 43 83 -15 53 -53 -27 -54 -11
-2 19 47 27 52 35 90 127 32 77 39 105 33 126 -13 46 -108 228 -127 243 -9 8
-64 29 -122 47 l-104 32 -89 -44 -88 -45 -31 -98 c-16 -55 -30 -113 -30 -130
0 -38 19 -82 35 -82 7 0 18 -7 25 -15 7 -8 17 -12 24 -8 6 4 5 -1 -2 -10 -8
-9 -70 -44 -139 -79 -120 -60 -126 -62 -139 -43 -8 10 -14 22 -14 27 0 9 64
50 125 80 55 27 58 54 5 51 l-35 -1 46 23 46 24 18 88 c11 48 19 97 19 108 -1
31 -83 174 -108 188 -11 6 -55 21 -96 33 l-75 21 -83 -38 c-74 -34 -82 -41
-82 -66 0 -15 -4 -44 -9 -63 -5 -19 -12 -56 -16 -82 -6 -45 -5 -48 24 -63 17
-8 31 -20 31 -25 0 -10 -56 -40 -75 -40 -7 0 -20 -9 -30 -20 -10 -11 -26 -20
-35 -20 -10 0 -45 -14 -80 -32 -60 -31 -62 -32 -76 -13 -8 10 -14 21 -14 24 0
9 79 54 150 85 79 35 74 30 61 54 -8 16 -6 21 13 30 21 9 24 20 33 114 l11
103 -40 68 c-54 89 -73 103 -156 112 -61 6 -76 4 -133 -20 -57 -24 -111 -57
-68 -42 19 6 99 -12 99 -23 0 -4 -6 -13 -14 -19 -11 -9 -16 -9 -22 0 -4 7 -3
9 4 5 6 -3 14 -1 17 5 5 7 -4 9 -26 7 -24 -2 -33 -7 -31 -18 2 -8 0 -12 -4 -8
-4 4 -13 3 -21 -3 -10 -9 -13 -8 -13 4 0 8 5 18 10 20 6 3 5 4 -2 3 -17 -3
-26 -40 -27 -113 -1 -39 3 -63 10 -63 6 0 17 -7 26 -15 13 -14 5 -20 -74 -57
-48 -23 -92 -43 -98 -44 -5 0 -13 -2 -17 -4 -5 -1 -11 -3 -15 -4 -5 -1 -22 -9
-39 -18 -31 -17 -54 -10 -54 17 0 14 65 52 150 87 35 14 66 32 69 39 2 8 -2
10 -13 6 -9 -4 -16 -5 -16 -4 0 1 7 40 15 85 l14 84 -29 57 c-31 62 -47 76
-125 108 -50 20 -52 20 -95 2 -25 -10 -50 -18 -55 -18 -6 -1 -24 22 -40 49
-16 28 -39 57 -50 64 -25 16 -98 33 -75 17 13 -9 12 -11 -3 -11 -10 0 -27 4
-37 10 -12 7 -32 5 -66 -7 l-49 -17 30 -8 c17 -4 35 -6 42 -3 7 2 0 -14 -15
-36 -23 -33 -31 -39 -54 -34 -27 4 -28 3 -28 -35 0 -29 4 -38 13 -34 8 3 20
-3 28 -12 11 -14 11 -18 -6 -30 -11 -8 -37 -20 -57 -26 -21 -6 -38 -17 -38
-23 0 -15 -78 -47 -85 -35 -8 12 -45 6 -82 -13 -39 -21 -39 -21 -47 0 -4 9 -1
21 6 26 9 6 8 7 -5 3 -11 -3 -20 0 -23 9 -9 23 -72 58 -91 50 -34 -13 -3 8 44
29 41 19 51 20 73 9 19 -9 24 -19 22 -40 -3 -23 -1 -26 9 -15 7 6 20 12 29 12
10 0 8 -6 -10 -20 -14 -11 -20 -20 -14 -20 5 0 14 4 20 9 5 5 52 23 104 40
l95 32 -5 72 c-4 51 -12 84 -29 113 -26 45 -47 60 -101 68 -28 5 -31 4 -15 -4
16 -8 12 -9 -20 -6 -25 3 -49 -1 -65 -10 -22 -14 -23 -15 -4 -11 24 5 25 -5 6
-40 -8 -14 -22 -23 -36 -23 -19 0 -23 -4 -19 -19 3 -12 -2 -20 -16 -24 -19 -5
-21 -1 -21 39 0 56 -37 117 -80 132 -18 7 -28 7 -25 2 8 -13 -8 -13 -20 -1 -6
6 -22 4 -40 -4z m-415 -175 c0 -5 -2 -10 -4 -10 -3 0 -8 5 -11 10 -3 6 -1 10
4 10 6 0 11 -4 11 -10z m410 -21 c7 -11 9 -26 7 -33 -3 -8 3 -12 16 -10 12 1
28 3 35 3 7 1 10 5 7 11 -4 6 5 8 22 4 17 -3 50 3 83 15 64 24 63 24 55 11 -3
-5 2 -10 12 -10 17 -1 17 -1 -1 -12 -11 -6 -76 -31 -145 -55 -69 -24 -130 -48
-136 -53 -14 -11 -39 13 -49 46 -3 11 -22 26 -42 33 l-36 13 57 23 c31 13 59
26 63 29 12 13 42 5 52 -15z m1003 -26 c9 -3 17 -9 17 -14 0 -5 -12 -3 -27 3
-34 14 -58 35 -28 23 11 -4 28 -10 38 -12z m-1193 -23 c0 -13 -20 -13 -40 0
-12 8 -9 10 13 10 15 0 27 -4 27 -10z m1073 -21 c20 -7 37 -15 37 -18 0 -3
-12 -19 -26 -35 -23 -26 -27 -27 -54 -16 -21 9 -30 19 -30 35 0 34 11 57 24
51 6 -3 28 -10 49 -17z m-1178 -19 c8 -13 -26 -50 -46 -50 -21 0 -23 8 -10 44
8 18 15 23 31 19 11 -3 22 -9 25 -13z m1738 -17 c-7 -2 -19 -2 -25 0 -7 3 -2
5 12 5 14 0 19 -2 13 -5z m-1346 -29 c-3 -3 -12 -4 -19 -1 -8 3 -5 6 6 6 11 1
17 -2 13 -5z m-113 -44 c5 -5 -1 -21 -13 -38 -16 -23 -26 -28 -46 -24 -23 4
-25 8 -19 36 3 17 9 35 11 39 6 10 53 0 67 -13z m555 -31 c30 -10 32 -15 29
-45 -2 -20 0 -30 7 -27 6 4 6 2 -1 -6 -18 -19 -67 -29 -94 -18 l-25 10 31 8
c23 7 33 16 37 36 3 16 2 32 -3 37 -12 12 -62 -2 -54 -16 4 -7 3 -8 -5 -4 -6
4 -19 2 -27 -5 -19 -16 -54 -22 -54 -11 0 5 18 15 41 22 22 8 42 17 45 22 7
11 35 10 73 -3z m301 -4 c16 -20 5 -34 -46 -55 -24 -11 -44 -24 -44 -29 0 -6
-18 -20 -41 -31 -31 -16 -44 -18 -54 -10 -9 7 -20 8 -32 2 -10 -5 -35 -17 -55
-26 -36 -15 -38 -14 -48 4 -9 16 -3 23 48 50 31 17 99 45 150 62 50 17 92 34
92 39 0 14 16 11 30 -6z m454 -9 c-4 -11 -16 -13 -42 -9 -50 8 -56 16 -10 12
20 -2 40 0 44 4 11 11 14 8 8 -7z m-959 -6 c3 -5 1 -10 -4 -10 -6 0 -11 5 -11
10 0 6 2 10 4 10 3 0 8 -4 11 -10z m60 -68 c-7 -7 -65 19 -65 29 0 5 16 1 35
-8 19 -9 33 -19 30 -21z m-152 -35 c41 -19 45 -28 20 -48 -14 -12 -16 -12 -8
0 6 10 4 12 -4 7 -7 -5 -10 -14 -7 -22 7 -19 -10 -27 -31 -15 -42 24 -43 25
-32 65 6 20 13 36 17 34 4 -2 24 -12 45 -21z m1002 3 c-3 -5 -11 -10 -16 -10
-6 0 -7 5 -4 10 3 6 11 10 16 10 6 0 7 -4 4 -10z m25 -20 c0 -5 -4 -10 -10
-10 -5 0 -10 5 -10 10 0 6 5 10 10 10 6 0 10 -4 10 -10z m-485 -42 c7 -7 2 -9
-15 -4 -14 3 -38 6 -53 6 -18 0 -26 4 -21 11 7 13 74 3 89 -13z m460 -18 c-3
-5 -12 -10 -18 -10 -7 0 -6 4 3 10 19 12 23 12 15 0z m-578 -16 c-3 -3 -12 -4
-19 -1 -8 3 -5 6 6 6 11 1 17 -2 13 -5z m-46 -21 c16 -3 29 -7 29 -9 0 -3 -11
-22 -25 -43 -25 -37 -27 -38 -60 -27 -29 9 -35 16 -35 38 0 46 10 60 38 53 13
-3 37 -9 53 -12z m613 -48 c33 -14 35 -17 24 -40 -12 -27 -13 -27 -46 -19 -20
6 -22 11 -16 37 6 27 4 29 -15 24 -12 -3 -19 -1 -15 4 8 13 26 11 68 -6z m436
-5 c0 -5 7 -10 15 -10 8 0 15 -4 15 -10 0 -13 -11 -12 -32 4 -20 15 -23 26 -8
26 6 0 10 -4 10 -10z m-1207 -224 c114 -59 212 -104 219 -100 6 4 8 3 5 -3 -6
-9 131 -84 548 -298 94 -49 159 -89 174 -108 28 -33 231 -137 270 -137 13 0
94 -37 180 -82 86 -45 248 -130 361 -189 178 -93 205 -110 212 -135 5 -16 46
-83 91 -149 l82 -120 97 -42 c91 -40 291 -113 308 -113 4 0 32 20 63 45 l55
46 130 -68 129 -68 39 -75 c37 -71 43 -77 113 -117 41 -23 78 -46 83 -51 5 -5
6 -76 2 -171 l-7 -162 -41 8 c-23 4 -59 8 -81 7 -84 -1 -108 -12 -192 -89 -45
-41 -83 -75 -86 -75 -2 0 -7 19 -11 41 -17 106 -151 305 -271 402 -66 53 -160
102 -218 112 -70 13 -121 -2 -201 -61 -41 -29 -77 -54 -80 -54 -3 0 -6 9 -6
20 0 69 -99 236 -197 332 -77 76 -118 103 -197 129 l-65 22 -87 -57 -87 -56
-37 77 c-79 168 -205 293 -318 318 -27 6 -42 0 -98 -35 -36 -23 -67 -40 -68
-38 -2 2 -20 37 -40 79 -70 144 -191 259 -272 259 -16 0 -47 -11 -69 -25 -22
-13 -44 -25 -50 -25 -5 0 -23 27 -39 60 -16 32 -50 85 -76 117 -91 113 -176
146 -254 101 l-40 -23 -51 75 c-28 41 -69 88 -91 105 l-40 30 -28 180 c-16 99
-34 210 -41 247 l-12 67 41 -23 c23 -13 134 -71 249 -130z m16 38 c14 -12 -19
-1 -35 12 -18 14 -18 14 6 3 14 -6 27 -13 29 -15z m1686 16 c3 -5 1 -10 -4
-10 -6 0 -11 5 -11 10 0 6 2 10 4 10 3 0 8 -4 11 -10z m-485 -10 c0 -5 -2 -10
-4 -10 -3 0 -8 5 -11 10 -3 6 -1 10 4 10 6 0 11 -4 11 -10z m1161 -170 c10 0
19 -5 19 -11 0 -6 -7 -8 -16 -5 -9 3 -20 6 -25 6 -5 0 -9 8 -8 18 0 10 3 12 6
5 2 -7 13 -13 24 -13z m-3511 -45 c0 -7 -81 -47 -87 -42 -2 3 13 14 34 25 41
21 53 25 53 17z m280 -35 c0 -5 -4 -10 -10 -10 -5 0 -10 -5 -10 -11 0 -6 7 -8
16 -5 9 3 12 2 9 -4 -11 -18 -83 -50 -99 -44 -10 4 -16 1 -16 -10 0 -9 -12
-18 -27 -22 -16 -3 -52 -19 -80 -35 -29 -16 -55 -29 -58 -29 -3 0 -22 -10 -42
-23 -39 -22 -62 -24 -75 -4 -13 20 -9 30 6 18 11 -9 16 -9 22 0 4 8 3 9 -4 5
-8 -5 -10 -2 -6 9 5 13 9 13 22 3 13 -11 14 -11 8 0 -5 9 -3 13 5 11 27 -3 40
1 34 11 -4 6 1 7 11 3 13 -5 15 -3 9 8 -4 8 -5 11 -1 7 4 -3 33 6 64 22 31 15
83 36 116 46 34 11 65 28 75 41 17 24 31 30 31 13z m3190 -50 c0 -5 -5 -10
-11 -10 -5 0 -7 5 -4 10 3 6 8 10 11 10 2 0 4 -4 4 -10z m-3197 -56 c3 -4 2
-15 -4 -26 -8 -15 -7 -22 7 -33 16 -12 16 -13 -7 -20 -13 -4 -57 -23 -98 -41
-67 -31 -72 -36 -60 -51 8 -10 -3 -3 -24 15 -38 33 -69 42 -64 20 3 -15 -78
-58 -110 -58 -40 0 -25 19 35 46 201 91 265 126 251 135 -11 8 -9 9 6 5 11 -3
27 -1 35 4 18 11 24 12 33 4z m3691 -72 c9 -26 27 -64 40 -83 19 -27 22 -39
13 -48 -7 -7 -8 -11 0 -11 6 0 16 7 23 15 7 8 17 15 22 15 6 0 4 -8 -3 -17
-13 -15 -11 -16 10 -10 24 6 51 -7 51 -24 0 -5 -17 -20 -37 -33 -21 -13 -51
-35 -67 -49 -55 -48 -70 -52 -105 -26 -38 28 -53 18 -22 -15 13 -14 21 -30 19
-37 -2 -7 -15 4 -27 25 l-24 37 33 34 33 34 -29 12 c-16 6 -45 17 -64 23 l-34
13 57 36 c61 39 66 47 41 71 -14 14 -18 14 -44 1 -65 -34 -58 -12 11 34 41 27
77 50 81 50 3 1 14 -20 22 -47z m-3631 6 c-2 -5 3 -8 12 -8 12 0 7 -8 -15 -26
-33 -28 -45 -28 -34 0 5 14 9 15 16 4 6 -8 7 1 3 25 -4 32 -3 36 9 25 8 -7 12
-16 9 -20z m232 22 c-3 -5 -12 -10 -18 -10 -7 0 -6 4 3 10 19 12 23 12 15 0z
m3079 -34 c53 -25 96 -47 96 -50 0 -11 -126 40 -165 67 -55 37 -42 34 69 -17z
m-3549 14 c-3 -5 -12 -10 -18 -10 -7 0 -6 4 3 10 19 12 23 12 15 0z m473 -13
c15 6 15 4 4 -10 -8 -9 -20 -13 -29 -10 -10 4 -14 2 -10 -4 7 -12 -40 -36 -54
-27 -5 3 -12 -2 -15 -10 -3 -9 -23 -20 -43 -26 -21 -5 -57 -23 -81 -39 -24
-16 -49 -27 -57 -24 -7 3 -13 0 -13 -6 0 -6 -18 -20 -39 -31 -36 -18 -41 -18
-55 -4 -9 8 -16 21 -16 27 0 8 3 8 8 -1 7 -10 32 1 102 43 52 30 119 64 150
75 30 11 71 28 90 38 19 10 36 14 38 10 2 -4 11 -4 20 -1z m3617 -57 c4 -6 -7
-10 -27 -9 -31 1 -32 1 -8 9 14 4 26 8 27 9 1 1 5 -3 8 -9z m-3626 -69 c37
-35 38 -45 9 -65 -25 -18 -68 -21 -68 -6 0 6 9 10 21 10 13 0 18 4 13 11 -5 9
1 10 20 5 15 -4 26 -2 26 3 0 17 -54 62 -68 56 -7 -3 -10 0 -7 5 10 16 21 12
54 -19z m-133 -6 c-11 -8 -25 -15 -30 -15 -6 1 0 7 14 15 32 19 40 18 16 0z
m4438 -145 c38 -80 70 -147 72 -149 2 -2 10 1 17 8 14 11 30 12 95 8 44 -3 43
-32 -5 -81 -21 -21 -38 -43 -38 -49 0 -6 -11 -11 -24 -12 -18 -1 -27 5 -34 26
-12 31 -12 31 -159 90 -96 38 -107 45 -102 64 7 29 -18 49 -53 41 -24 -5 -26
-4 -12 6 91 75 107 92 134 148 16 33 32 57 35 53 4 -5 37 -73 74 -153z m-4398
128 c-1 -13 -5 -26 -11 -30 -5 -4 -2 -10 8 -14 22 -8 22 -24 0 -24 -10 0 -27
-7 -37 -15 -11 -8 -28 -15 -38 -15 -11 0 -28 -8 -39 -19 -13 -11 -29 -17 -42
-14 -22 5 -22 5 -2 -11 19 -16 19 -16 -10 -4 -16 6 -37 18 -46 25 -8 7 -19 13
-24 13 -5 0 -1 -6 9 -13 9 -7 16 -18 14 -24 -2 -6 5 -18 15 -25 17 -13 15 -16
-34 -47 -44 -27 -57 -31 -76 -22 -34 16 -29 27 27 58 51 28 58 37 40 48 -25
16 -3 35 88 74 75 34 146 69 158 80 0 1 0 -9 0 -21z m-565 -15 c13 -16 12 -17
-3 -5 -13 10 -17 10 -21 0 -4 -8 -6 -7 -6 5 -1 9 3 17 8 17 5 0 15 -8 22 -17z
m56 -108 l16 -30 -21 18 c-11 11 -25 33 -31 50 -10 30 -10 31 5 12 8 -11 23
-33 31 -50z m893 53 c0 -5 -8 -8 -17 -8 -16 0 -16 -2 -3 -11 12 -9 12 -10 -4
-5 -12 4 -23 0 -31 -11 -7 -9 -26 -18 -41 -18 -17 -1 -29 -7 -29 -15 0 -8 -16
-18 -35 -23 -19 -5 -56 -24 -83 -43 -26 -19 -56 -34 -68 -34 -11 0 -18 -4 -15
-9 8 -12 -63 -53 -80 -47 -8 3 -14 9 -14 14 0 22 214 144 338 192 17 7 32 16
32 20 0 4 11 7 25 6 14 0 25 -4 25 -8z m-932 -56 c2 -6 -6 -10 -17 -9 -22 1
-26 8 -14 21 9 9 26 3 31 -12z m5226 -28 c25 -10 8 -24 -27 -23 -28 2 -29 2
-7 7 l25 5 -25 8 c-23 6 -23 7 -3 8 12 1 28 -2 37 -5z m-5209 -14 c3 -5 1 -10
-4 -10 -6 0 -11 5 -11 10 0 6 2 10 4 10 3 0 8 -4 11 -10z m53 -25 c-3 -3 -9 2
-12 12 -6 14 -5 15 5 6 7 -7 10 -15 7 -18z m785 -2 c-7 -2 -13 -14 -13 -25 0
-16 -3 -18 -13 -9 -8 6 -16 10 -18 8 -3 -1 4 6 14 16 11 9 24 17 31 16 7 0 7
-2 -1 -6z m-73 -8 c0 -7 -63 -45 -75 -45 -5 0 8 11 30 24 47 28 45 27 45 21z
m10 -30 c0 -2 -13 -11 -30 -20 -38 -19 -40 -11 -2 9 31 17 32 18 32 11z m-675
-35 c16 -17 16 -20 3 -15 -9 4 -19 13 -22 21 -7 19 -2 18 19 -6z m1128 -13
c21 4 21 4 4 -11 -11 -8 -25 -12 -33 -9 -8 3 -18 -5 -24 -21 -9 -25 -19 -30
-47 -27 -7 1 -13 -5 -13 -13 0 -9 -26 -29 -60 -46 -33 -17 -69 -39 -80 -50
-11 -11 -32 -20 -46 -20 -14 0 -23 -4 -19 -10 3 -5 -13 -21 -35 -36 -32 -22
-43 -25 -53 -15 -13 13 -7 20 57 66 16 11 44 32 63 47 20 15 83 51 140 80 58
28 108 58 111 67 3 8 7 10 9 4 2 -6 14 -9 26 -6z m-588 -27 c-3 -5 -12 -10
-18 -10 -7 0 -6 4 3 10 19 12 23 12 15 0z m-377 -78 c18 -23 20 -31 8 -26 -9
3 -16 13 -16 21 0 8 -4 12 -9 9 -10 -7 -21 17 -20 42 0 14 2 14 6 2 4 -8 17
-30 31 -48z m319 37 c2 -17 -1 -18 -13 -8 -13 11 -10 20 11 29 1 0 1 -9 2 -21z
m-61 -61 c-3 -25 -18 -38 -42 -38 -15 0 -23 4 -19 11 4 6 13 8 19 6 7 -3 19
-1 27 5 11 8 9 8 -6 4 -20 -6 -20 -6 -1 9 24 18 25 18 22 3z m-210 -55 c-7 -7
-26 7 -26 19 0 6 6 6 15 -2 9 -7 13 -15 11 -17z m49 -83 c10 -11 16 -20 13
-20 -3 0 -13 9 -23 20 -10 11 -16 20 -13 20 3 0 13 -9 23 -20z m1301 -12 c4
-7 3 -8 -4 -4 -7 4 -12 2 -12 -5 0 -7 -3 -10 -6 -6 -6 5 3 27 11 27 2 0 7 -5
11 -12z m-36 -14 c0 -8 -4 -12 -10 -9 -5 3 -10 10 -10 16 0 5 5 9 10 9 6 0 10
-7 10 -16z m-1104 -13 c-3 -4 5 -21 18 -36 15 -17 22 -34 18 -44 -5 -13 -7
-13 -10 4 -2 11 -9 25 -14 30 -8 7 -9 4 -4 -10 6 -20 6 -20 -9 -1 -17 23 -20
66 -4 66 5 0 8 -4 5 -9z m1061 -23 c-10 -16 -24 -23 -45 -22 -27 1 -30 -1 -22
-16 9 -18 -1 -28 -36 -35 -21 -5 -99 -58 -112 -77 -8 -10 -19 -18 -25 -17 -31
4 -46 -2 -41 -15 8 -21 -75 -73 -87 -55 -4 8 -3 20 4 29 10 13 10 13 -5 2 -14
-11 -18 -10 -27 6 -8 15 -4 22 22 37 18 10 34 21 37 24 3 3 24 19 47 35 32 21
46 26 56 18 10 -8 24 -4 58 18 24 17 52 30 61 30 9 0 20 4 23 10 6 10 83 49
99 50 5 0 2 -10 -7 -22z m-187 -38 c0 -5 -5 -10 -11 -10 -5 0 -7 5 -4 10 3 6
8 10 11 10 2 0 4 -4 4 -10z m-328 -13 c9 -1 16 -6 15 -12 -1 -5 3 -9 9 -8 6 1
11 -4 11 -12 0 -11 -6 -10 -27 5 -14 10 -41 23 -60 29 l-35 11 35 -6 c19 -2
43 -6 52 -7z m-478 -63 c9 -24 2 -26 -12 -4 -7 11 -8 20 -3 20 5 0 12 -7 15
-16z m5202 -56 c4 -6 3 -8 -3 -5 -6 4 -66 -51 -134 -121 -68 -70 -113 -113
-99 -97 24 29 223 235 227 235 1 0 5 -5 9 -12z m-4310 -28 c8 0 14 -4 14 -10
0 -5 7 -7 15 -4 8 4 15 2 15 -2 0 -5 21 -10 47 -12 29 -2 51 -9 56 -18 5 -8
11 -12 15 -10 4 3 8 -4 8 -14 0 -10 -3 -17 -7 -14 -4 2 -15 -8 -24 -22 -9 -15
-12 -23 -6 -20 6 4 11 5 11 2 0 -3 -27 -24 -61 -46 -60 -41 -61 -41 -93 -26
-33 15 -81 22 -103 15 -6 -2 -34 14 -63 35 -52 39 -52 39 -28 53 13 8 59 35
103 61 44 26 82 44 83 40 2 -5 10 -8 18 -8z m-827 -34 c-3 -3 -11 5 -18 17
-13 21 -12 21 5 5 10 -10 16 -20 13 -22z m1456 -43 c-11 -7 -22 -13 -26 -13
-13 0 -20 18 -9 25 5 3 10 2 10 -4 0 -6 7 -8 15 -5 8 4 12 11 8 17 -4 6 -1 7
7 2 10 -6 9 -11 -5 -22z m-1235 -13 c8 -5 11 -10 5 -10 -5 0 -17 5 -25 10 -8
5 -10 10 -5 10 6 0 17 -5 25 -10z m1173 -22 c-9 -36 -23 -50 -39 -37 -17 14
-36 2 -32 -19 4 -24 -10 -42 -28 -35 -21 8 -125 -63 -118 -81 6 -16 -21 -31
-63 -35 -7 0 -13 -7 -13 -15 0 -8 -15 -25 -32 -37 -18 -13 -36 -27 -39 -31 -3
-5 -12 -2 -19 7 -12 15 -9 21 26 52 l39 35 -41 -31 -42 -31 -29 37 -30 36 85
64 85 64 32 -31 31 -30 42 30 c23 16 47 30 54 30 6 0 19 7 28 15 12 11 78 51
107 64 0 1 -1 -9 -4 -21z m-1112 -60 c6 -11 4 -18 -7 -22 -8 -3 -12 -2 -9 4 3
5 1 18 -4 27 -10 17 -10 16 -11 -2 -1 -18 -2 -17 -15 5 -24 42 -18 57 11 29
14 -13 30 -31 35 -41z m49 -112 c0 -6 -7 -1 -15 10 -8 10 -15 23 -15 28 0 6 7
1 15 -10 8 -10 15 -23 15 -28z m1110 -46 c8 -19 27 -55 42 -80 l29 -45 -23
-15 c-12 -8 -54 -37 -92 -65 -69 -48 -73 -49 -144 -50 l-73 0 -59 55 c-33 31
-60 60 -60 65 1 6 49 42 108 80 77 51 117 70 142 71 19 1 51 8 70 17 39 17 41
16 60 -33z m-1024 -66 c18 -14 18 -14 -6 -3 -31 14 -36 19 -24 19 6 0 19 -7
30 -16z m1594 -46 c11 4 10 1 -3 -12 -19 -20 -32 -15 -40 15 -5 19 -4 19 11 6
9 -8 24 -12 32 -9z m-1389 -15 c13 -16 12 -17 -3 -4 -17 13 -22 21 -14 21 2 0
10 -8 17 -17z m35 -32 c-3 -4 8 -23 23 -42 35 -43 55 -79 43 -79 -6 0 -12 9
-15 21 -3 12 -10 18 -16 14 -6 -3 -9 0 -5 8 3 8 -2 20 -11 27 -12 10 -15 10
-15 -1 0 -11 -2 -11 -10 1 -13 20 -13 73 0 65 6 -4 8 -10 6 -14z m1272 -48
c-9 -11 -14 -11 -26 -1 -13 11 -14 11 -8 0 9 -15 -29 -62 -51 -62 -7 0 -13 -4
-13 -10 0 -5 -6 -10 -13 -10 -21 0 -87 -60 -87 -80 0 -19 -21 -32 -55 -34 -13
-1 -19 -7 -17 -17 4 -24 -71 -82 -86 -67 -19 19 -14 34 18 61 17 14 30 29 30
33 0 5 -16 -8 -36 -26 l-35 -35 -58 65 c-33 36 -54 67 -47 69 6 2 36 26 67 52
31 27 60 49 63 49 4 0 17 -10 29 -22 12 -13 37 -36 54 -52 l31 -28 54 40 c29
22 63 43 76 47 12 3 27 15 32 26 6 11 21 19 35 19 13 0 27 5 31 11 4 8 9 7 15
-2 4 -8 3 -19 -3 -26z m-1203 -101 c-3 -3 -11 0 -18 7 -9 10 -8 11 6 5 10 -3
15 -9 12 -12z m3845 -37 c0 -3 -22 6 -50 20 -27 14 -50 28 -50 30 0 3 23 -6
50 -20 28 -14 50 -28 50 -30z m-2647 14 c-6 -6 -9 -18 -6 -25 3 -8 0 -14 -7
-14 -6 0 -8 5 -5 10 3 6 2 10 -4 10 -18 0 -21 -18 -5 -24 13 -5 14 -9 3 -22
-10 -12 -10 -15 2 -12 10 2 15 -10 17 -49 2 -32 -1 -53 -7 -53 -6 0 -11 -6
-11 -13 0 -18 -62 -16 -84 2 -9 8 -16 9 -16 3 0 -6 -3 -18 -7 -28 -5 -13 -3
-16 10 -11 9 3 17 2 17 -4 0 -5 -6 -12 -13 -15 -8 -3 -14 -11 -14 -18 0 -8 6
-12 14 -9 11 5 15 -2 12 -23 0 -3 10 -14 22 -24 30 -27 20 -66 -21 -75 -32 -7
-46 -4 -43 7 2 4 -3 5 -10 3 -18 -7 -59 34 -101 99 -20 31 -36 58 -36 61 0 2
35 30 78 61 42 32 108 84 146 116 62 52 99 77 69 47z m522 -19 c-3 -5 -11 -10
-16 -10 -6 0 -7 5 -4 10 3 6 11 10 16 10 6 0 7 -4 4 -10z m25 -91 c0 -6 -4 -7
-10 -4 -5 3 -10 11 -10 16 0 6 5 7 10 4 6 -3 10 -11 10 -16z m-1660 -4 c7 -9
8 -15 2 -15 -5 0 -12 7 -16 15 -3 8 -4 15 -2 15 2 0 9 -7 16 -15z m1890 -127
c0 -5 -5 -6 -11 -2 -8 4 -9 -1 -4 -15 6 -20 5 -21 -14 -9 -28 17 -26 33 4 34
14 1 25 -2 25 -8z m-100 -82 c0 -2 -7 -7 -16 -10 -8 -3 -12 -2 -9 4 6 10 25
14 25 6z m-40 -71 c-7 -8 -17 -15 -23 -15 -6 0 -2 7 9 15 25 19 30 19 14 0z"/>
<path d="M1430 1160 c-9 -6 -10 -10 -3 -10 6 0 15 5 18 10 8 12 4 12 -15 0z"/>
<path d="M1369 1113 c-13 -16 -12 -17 4 -4 9 7 17 15 17 17 0 8 -8 3 -21 -13z"/>
<path d="M1879 813 c-13 -16 -12 -17 4 -4 16 13 21 21 13 21 -2 0 -10 -8 -17
-17z"/>
<path d="M2420 405 c-7 -8 -8 -15 -2 -15 5 0 15 7 22 15 7 8 8 15 2 15 -5 0
-15 -7 -22 -15z"/>
<path d="M1971 2761 c-10 -7 -7 -9 12 -8 14 1 23 5 20 10 -6 9 -15 9 -32 -2z"/>
<path d="M864 2675 c22 -17 40 -20 32 -6 -3 5 -16 11 -28 14 -22 6 -22 5 -4
-8z"/>
<path d="M2460 2609 c0 -5 5 -7 10 -4 6 3 10 8 10 11 0 2 -4 4 -10 4 -5 0 -10
-5 -10 -11z"/>
<path d="M2405 2590 c-3 -5 1 -10 10 -10 9 0 13 5 10 10 -3 6 -8 10 -10 10 -2
0 -7 -4 -10 -10z"/>
<path d="M6002 1067 l-23 -24 23 -6 c28 -8 30 -5 26 28 l-3 27 -23 -25z"/>
</g>
</svg>
